<svg width="199" height="40" viewBox="0 0 199 40" fill="none" xmlns="http://www.w3.org/2000/svg">
<path d="M6.73862 12.134C3.79047 15.097 2.3164 18.7654 2.3164 23.0688H8.42328C8.42328 20.2469 9.3358 17.9894 11.0906 16.1552C12.8455 14.3915 15.0215 13.4744 17.6889 13.4744V7.61902C13.3369 7.61902 9.68677 9.1005 6.73862 12.134Z" fill="white"/>
<path d="M12.8449 34.074C15.793 37.037 19.4431 38.5185 23.725 38.5185V32.3809C20.9172 32.3809 18.671 31.4638 16.846 29.7001C15.0911 27.9364 14.1786 25.7495 14.1786 23.0687H8.35248C8.42267 27.3721 9.89675 31.0405 12.8449 34.074Z" fill="white"/>
<path d="M34.6767 27.8659C37.6248 24.9029 39.0989 21.2345 39.0989 16.9312H32.992C32.992 19.753 32.0795 22.0105 30.3246 23.8447C28.5698 25.6084 26.3938 26.5255 23.7264 26.5255V32.3809C28.0784 32.3809 31.7285 30.8289 34.6767 27.8659Z" fill="white"/>
<path d="M17.6184 1.48145V7.33682C20.2156 7.33682 22.4618 8.25393 24.2166 10.0176C25.9715 11.8518 26.884 14.1093 26.884 16.9312H32.9909C32.9909 12.6278 31.5168 8.9594 28.5687 5.99644C25.6205 2.96293 21.9704 1.48145 17.6184 1.48145Z" fill="white"/>
<path d="M83.5307 11.4285C81.2845 11.4285 79.3893 12.2045 77.845 13.7565C76.3007 15.3085 75.5286 17.2133 75.5286 19.4708C75.5286 21.7283 76.3007 23.6331 77.845 25.1851C79.3893 26.7371 81.2845 27.5131 83.5307 27.5131C85.7769 27.5131 87.6721 26.7371 89.2164 25.1851C90.7607 23.6331 91.5328 21.7283 91.5328 19.4708C91.5328 17.2133 90.7607 15.3085 89.2164 13.7565C87.7423 12.275 85.7769 11.4285 83.5307 11.4285ZM86.9702 23.1392C86.0577 24.0563 84.8644 24.5502 83.5307 24.5502C82.1268 24.5502 81.0037 24.0563 80.0912 23.1392C79.1787 22.2221 78.6873 21.0228 78.6873 19.5413C78.6873 18.0599 79.1787 16.8606 80.0912 15.9435C81.0037 15.0264 82.197 14.5325 83.5307 14.5325C84.9346 14.5325 86.0577 15.0264 86.9702 15.9435C87.8827 16.8606 88.3741 18.0599 88.3741 19.5413C88.3741 21.0228 87.8827 22.2221 86.9702 23.1392Z" fill="white"/>
<path d="M57.1382 11.4286C55.3131 11.4286 53.6987 11.993 52.2948 12.9806V11.7108H49.0659V32.0988H52.2948V26.0318C53.6987 27.09 55.3131 27.5838 57.1382 27.5838C59.3844 27.5838 61.2796 26.8078 62.8239 25.2557C64.3681 23.7037 65.1403 21.799 65.1403 19.5415C65.1403 17.284 64.3681 15.3792 62.8239 13.8272C61.2796 12.2046 59.3844 11.4286 57.1382 11.4286ZM60.5777 23.1393C59.6652 24.0565 58.4719 24.5503 57.1382 24.5503C55.7343 24.5503 54.6112 24.0565 53.6987 23.1393C52.7861 22.2222 52.2948 21.0229 52.2948 19.5415C52.2948 18.06 52.7861 16.8607 53.6987 15.9436C54.6112 15.0265 55.8045 14.5326 57.1382 14.5326C58.542 14.5326 59.6652 15.0265 60.5777 15.9436C61.4902 16.8607 61.9816 18.06 61.9816 19.5415C61.9816 21.0229 61.4902 22.2222 60.5777 23.1393Z" fill="white"/>
<path d="M111.399 11.499C109.784 11.499 108.45 11.9223 107.257 12.7689C106.696 13.1921 106.345 13.6154 106.064 14.0387C105.783 13.6154 105.362 13.1216 104.87 12.7689C103.818 11.9223 102.624 11.499 101.22 11.499C99.8867 11.499 98.7636 11.9223 97.7107 12.7689C97.2895 13.1921 96.9386 13.6154 96.6578 14.0387V11.7812H93.4289V27.3015H96.6578V18.6948C96.6578 17.4249 97.0088 16.4373 97.7107 15.6613C98.4126 14.8853 99.3252 14.5325 100.378 14.5325C101.291 14.5325 102.063 14.8147 102.694 15.4496C103.326 16.0846 103.607 16.9311 103.607 18.0599V27.3015H106.836V18.6948C106.836 17.4249 107.187 16.4373 107.889 15.6613C108.591 14.8853 109.503 14.5325 110.556 14.5325C111.469 14.5325 112.241 14.8147 112.873 15.4496C113.504 16.0846 113.785 16.9311 113.785 18.0599V27.3015H117.014V18.0599C117.014 16.0846 116.452 14.5325 115.4 13.2627C114.276 12.0634 112.943 11.499 111.399 11.499Z" fill="white"/>
<path d="M136.668 11.4991C135.053 11.4991 133.72 11.9224 132.527 12.769C131.965 13.1923 131.614 13.6155 131.333 14.0388C131.052 13.6155 130.631 13.1217 130.14 12.769C129.087 11.9224 127.894 11.4991 126.49 11.4991C125.156 11.4991 124.033 11.9224 122.98 12.769C122.559 13.1923 122.208 13.6155 121.927 14.0388V11.7813H118.698V27.3016H121.927V18.6949C121.927 17.4251 122.278 16.4374 122.98 15.6614C123.682 14.8854 124.595 14.5327 125.648 14.5327C126.56 14.5327 127.332 14.8148 127.964 15.4498C128.596 16.0847 128.876 16.9312 128.876 18.06V27.3016H132.105V18.6949C132.105 17.4251 132.456 16.4374 133.158 15.6614C133.86 14.8854 134.773 14.5327 135.826 14.5327C136.738 14.5327 137.51 14.8148 138.142 15.4498C138.774 16.0847 139.055 16.9312 139.055 18.06V27.3016H142.283V18.06C142.283 16.0847 141.722 14.5327 140.669 13.2628C139.546 12.0635 138.212 11.4991 136.668 11.4991Z" fill="white"/>
<path d="M70.0532 11.7812H66.8243V19.5414V20.2469V27.3015H70.0532V20.2469V19.8236C70.0532 18.4126 70.5446 17.2133 71.4571 16.2962C72.3696 15.3791 73.5629 14.8853 74.8966 14.8853V11.7812C73.0715 11.7812 71.4571 12.3456 70.0532 13.3333V11.7812Z" fill="white"/>
<path d="M147.898 11.7812H144.669V27.3015H147.898V11.7812Z" fill="white"/>
<path d="M146.285 5.00879C145.793 5.00879 145.302 5.22043 144.951 5.57316C144.53 5.9259 144.39 6.41972 144.39 6.9841C144.39 7.54847 144.6 8.0423 144.951 8.39503C145.302 8.74777 145.793 8.95941 146.285 8.95941C146.776 8.95941 147.268 8.74777 147.619 8.39503C148.04 8.0423 148.18 7.54847 148.18 6.9841C148.18 6.41972 147.969 5.9259 147.619 5.57316C147.268 5.22043 146.776 5.00879 146.285 5.00879Z" fill="white"/>
<path d="M158.99 11.4991C157.656 11.4991 156.392 11.9224 155.34 12.769C154.848 13.1217 154.497 13.6155 154.146 14.0388V11.7813H150.917V27.3016H154.146V18.9066C154.146 17.6367 154.567 16.5785 155.34 15.7319C156.112 14.9559 157.094 14.5327 158.358 14.5327C159.411 14.5327 160.253 14.8854 160.885 15.5203C161.517 16.1552 161.868 17.0723 161.868 18.2716V27.3016H165.097V18.2716C165.097 16.1552 164.535 14.5327 163.412 13.3334C162.289 12.1341 160.815 11.4991 158.99 11.4991Z" fill="white"/>
<path d="M174.923 11.499C172.747 11.499 170.852 12.275 169.307 13.8271C167.763 15.3791 166.991 17.2839 166.991 19.5414C166.991 21.7988 167.763 23.7036 169.307 25.2556C170.852 26.8077 172.747 27.5837 174.993 27.5837C176.888 27.5837 178.503 27.0899 179.977 26.1022C180.608 25.6789 181.17 25.1851 181.591 24.6207L179.626 22.3632C179.275 22.7865 178.854 23.1392 178.432 23.4214C177.38 24.1269 176.327 24.4796 175.133 24.4796C173.87 24.4796 172.817 24.1269 171.904 23.3509C170.992 22.5749 170.501 21.6578 170.29 20.5996H182.223L182.293 20.1763C182.363 19.6119 182.363 19.1886 182.363 18.977C182.363 16.79 181.661 14.9558 180.258 13.5449C178.924 12.2045 177.099 11.499 174.923 11.499ZM170.43 17.9893C171.132 15.5907 172.677 14.462 174.923 14.462C176.046 14.462 176.958 14.8147 177.66 15.4496C178.362 16.0846 178.854 16.9311 179.134 18.0599L170.43 17.9893Z" fill="white"/>
<path d="M187.628 13.4038V11.8518H184.399V19.9647V20.3174V27.3721H187.628V20.3174V19.8941C187.628 18.4832 188.12 17.2839 189.032 16.3668C189.945 15.4497 191.138 14.9559 192.472 14.9559V11.8518C190.647 11.8518 189.032 12.4162 187.628 13.4038Z" fill="white"/>
<path d="M193.666 24.7619H193.175V25.8201H192.824V23.2804H193.947C194.438 23.2804 194.789 23.6331 194.789 24.0564C194.789 24.4091 194.579 24.7619 194.158 24.7619L195 25.8201H194.509L193.666 24.7619ZM193.175 24.4091H193.877C194.158 24.4091 194.298 24.268 194.298 23.9859C194.298 23.7037 194.158 23.5626 193.877 23.5626H193.175V24.4091Z" fill="white"/>
<path d="M193.877 27.3721C192.333 27.3721 191.069 26.1023 191.069 24.5503C191.069 22.9982 192.333 21.7284 193.877 21.7284C195.421 21.7284 196.685 22.9982 196.685 24.5503C196.685 26.1023 195.421 27.3721 193.877 27.3721ZM193.877 21.94C192.473 21.94 191.28 23.0688 191.28 24.5503C191.28 25.9612 192.403 27.1605 193.877 27.1605C195.281 27.1605 196.474 26.0317 196.474 24.5503C196.474 23.1393 195.351 21.94 193.877 21.94Z" fill="white"/>
</svg>
