<svg width="199" height="40" viewBox="0 0 199 40" fill="none" xmlns="http://www.w3.org/2000/svg">
<path d="M6.73863 12.1339C3.79048 15.0969 2.31641 18.7653 2.31641 23.0686H8.42328C8.42328 20.2468 9.33581 17.9893 11.0907 16.1551C12.8455 14.3914 15.0215 13.4743 17.6889 13.4743V7.6189C13.3369 7.6189 9.68678 9.10038 6.73863 12.1339Z" fill="#5820F6"/>
<path d="M12.845 34.0741C15.7931 37.0371 19.4432 38.5186 23.725 38.5186V32.381C20.9173 32.381 18.6711 31.4639 16.846 29.7002C15.0912 27.9366 14.1786 25.7496 14.1786 23.0688H8.35254C8.42273 27.3722 9.89681 31.0406 12.845 34.0741Z" fill="#5820F6"/>
<path d="M34.6767 27.8659C37.6249 24.9029 39.0989 21.2345 39.0989 16.9312H32.992C32.992 19.753 32.0795 22.0105 30.3247 23.8447C28.5698 25.6084 26.3938 26.5255 23.7264 26.5255V32.3809C28.0785 32.3809 31.7286 30.8289 34.6767 27.8659Z" fill="#5820F6"/>
<path d="M17.6184 1.48145V7.33682C20.2156 7.33682 22.4618 8.25393 24.2166 10.0176C25.9715 11.8518 26.884 14.1093 26.884 16.9312H32.9909C32.9909 12.6278 31.5168 8.9594 28.5687 5.99644C25.6205 2.96293 21.9704 1.48145 17.6184 1.48145Z" fill="#5820F6"/>
</svg>
