<?xml version="1.0" standalone="no"?>
<!DOCTYPE svg PUBLIC "-//W3C//DTD SVG 20010904//EN"
 "http://www.w3.org/TR/2001/REC-SVG-20010904/DTD/svg10.dtd">
<svg version="1.0" xmlns="http://www.w3.org/2000/svg"
 width="513.000000pt" height="513.000000pt" viewBox="0 0 513.000000 513.000000"
 preserveAspectRatio="xMidYMid meet">
<metadata>
Created by potrace 1.14, written by Peter Selinger 2001-2017
</metadata>
<g transform="translate(0.000000,513.000000) scale(0.100000,-0.100000)"
fill="#000000" stroke="none">
<path d="M2130 4726 l0 -406 48 -1 c258 -5 518 -92 714 -237 73 -54 152 -126
209 -189 39 -44 109 -141 109 -153 0 -5 5 -10 10 -10 6 0 10 -6 10 -14 0 -8 4
-16 8 -18 11 -4 76 -142 102 -214 23 -66 46 -151 55 -204 3 -19 8 -48 11 -65
5 -28 12 -136 13 -195 l1 -25 423 0 422 0 -1 -80 c-1 -81 -8 -160 -19 -205 -3
-14 -7 -37 -10 -52 -10 -55 -58 -194 -92 -268 -73 -156 -197 -317 -337 -438
-38 -32 -188 -132 -199 -132 -5 0 -21 -8 -35 -18 -26 -17 -148 -68 -188 -77
-10 -3 -46 -11 -79 -19 -88 -22 -110 -25 -210 -32 -49 -3 -96 -7 -102 -9 -10
-4 -13 -93 -13 -406 l0 -401 -107 5 c-60 3 -115 8 -123 11 -8 3 -28 8 -45 10
-44 5 -143 29 -185 44 -8 3 -21 6 -28 8 -8 1 -28 9 -45 17 -18 8 -57 26 -87
40 -73 33 -222 132 -290 193 -49 44 -67 63 -134 138 -77 87 -178 268 -217 388
-40 123 -65 273 -68 398 l-1 35 -397 0 -398 0 1 80 c0 70 5 122 18 200 29 170
103 350 201 496 232 340 603 542 1008 548 l57 1 0 406 0 407 -127 -7 c-71 -3
-137 -8 -148 -10 -11 -2 -47 -7 -80 -11 -33 -3 -98 -15 -145 -26 -47 -11 -95
-22 -107 -24 -32 -8 -221 -74 -267 -95 -23 -10 -56 -24 -73 -31 -18 -8 -33
-17 -33 -21 0 -5 -9 -8 -20 -8 -11 0 -20 -4 -20 -10 0 -5 -5 -10 -11 -10 -14
0 -133 -71 -137 -82 -2 -4 -8 -8 -13 -8 -9 0 -150 -105 -210 -156 -59 -51
-213 -208 -264 -269 -27 -33 -53 -61 -57 -63 -5 -2 -8 -10 -8 -17 0 -7 -3 -15
-8 -17 -23 -10 -164 -237 -214 -348 -67 -145 -130 -336 -152 -460 -3 -14 -5
-25 -6 -25 -2 0 -5 -21 -14 -91 -4 -28 -9 -61 -11 -75 -3 -13 -8 -80 -11 -149
l-6 -125 417 0 c229 0 418 -2 420 -6 2 -3 7 -48 10 -100 3 -52 7 -105 9 -119
2 -14 6 -54 10 -90 4 -36 11 -78 16 -95 5 -16 12 -46 15 -65 3 -19 8 -43 11
-52 3 -9 7 -25 9 -35 23 -106 103 -313 170 -440 47 -90 175 -287 217 -334 13
-15 41 -48 63 -74 73 -89 228 -235 299 -285 12 -8 28 -21 36 -29 17 -17 155
-108 215 -141 204 -116 463 -208 660 -236 28 -3 59 -8 70 -11 35 -7 100 -13
197 -18 53 -2 99 -5 104 -6 34 -6 34 -5 34 421 0 328 3 422 13 425 6 2 64 6
128 9 64 3 127 7 140 10 13 3 42 7 64 10 95 12 269 53 370 88 84 28 249 100
253 110 2 4 12 8 21 8 10 0 30 9 44 20 14 11 28 20 32 20 9 0 202 126 220 143
7 7 36 30 65 52 84 65 267 248 338 340 12 15 74 100 97 130 53 74 192 330 199
369 2 6 10 29 20 51 22 52 82 258 90 310 3 22 8 51 11 65 17 73 29 197 29 315
l1 90 -422 0 -423 0 -1 60 c-3 151 -27 343 -59 470 -6 22 -13 49 -15 61 -8 35
-63 197 -81 239 -10 22 -18 42 -19 45 -7 22 -60 126 -68 131 -5 3 -7 8 -6 10
8 11 -142 240 -211 323 -96 114 -198 218 -290 296 -36 30 -67 57 -70 60 -15
15 -123 93 -173 124 -189 120 -478 237 -672 271 -16 2 -41 7 -55 10 -23 5 -47
8 -140 20 -19 2 -90 7 -157 11 l-123 6 0 -406z"/>
</g>
</svg>
