<svg width="20" height="20" viewBox="0 0 20 20" fill="none" xmlns="http://www.w3.org/2000/svg">
<g clip-path="url(#clip0_501_996)">
<path d="M16.6667 1.6665H3.33341C2.41294 1.6665 1.66675 2.4127 1.66675 3.33317V6.6665C1.66675 7.58698 2.41294 8.33317 3.33341 8.33317H16.6667C17.5872 8.33317 18.3334 7.58698 18.3334 6.6665V3.33317C18.3334 2.4127 17.5872 1.6665 16.6667 1.6665Z" stroke="#5820F6" stroke-width="1.5" stroke-linecap="round" stroke-linejoin="round"/>
<path d="M16.6667 11.6665H3.33341C2.41294 11.6665 1.66675 12.4127 1.66675 13.3332V16.6665C1.66675 17.587 2.41294 18.3332 3.33341 18.3332H16.6667C17.5872 18.3332 18.3334 17.587 18.3334 16.6665V13.3332C18.3334 12.4127 17.5872 11.6665 16.6667 11.6665Z" stroke="#5820F6" stroke-width="1.5" stroke-linecap="round" stroke-linejoin="round"/>
<path d="M5 5H5.00833" stroke="#5820F6" stroke-width="1.5" stroke-linecap="round" stroke-linejoin="round"/>
<path d="M5 15H5.00833" stroke="#5820F6" stroke-width="1.5" stroke-linecap="round" stroke-linejoin="round"/>
</g>
<defs>
<clipPath id="clip0_501_996">
<rect width="20" height="20" fill="white"/>
</clipPath>
</defs>
</svg>
