<svg width="20" height="20" viewBox="0 0 20 20" fill="none" xmlns="http://www.w3.org/2000/svg">
<path d="M18.3334 10H1.66675" stroke="#5820F6" stroke-width="1.5" stroke-linecap="round" stroke-linejoin="round"/>
<path d="M4.54175 4.2585L1.66675 10.0002V15.0002C1.66675 15.4422 1.84234 15.8661 2.1549 16.1787C2.46746 16.4912 2.89139 16.6668 3.33341 16.6668H16.6667C17.1088 16.6668 17.5327 16.4912 17.8453 16.1787C18.1578 15.8661 18.3334 15.4422 18.3334 15.0002V10.0002L15.4584 4.2585C15.3204 3.98082 15.1077 3.74714 14.8442 3.58373C14.5807 3.42032 14.2768 3.33366 13.9667 3.3335H6.03341C5.72334 3.33366 5.41947 3.42032 5.15595 3.58373C4.89244 3.74714 4.67973 3.98082 4.54175 4.2585Z" stroke="#5820F6" stroke-width="1.5" stroke-linecap="round" stroke-linejoin="round"/>
<path d="M5 13.3335H5.00833" stroke="#5820F6" stroke-width="1.5" stroke-linecap="round" stroke-linejoin="round"/>
<path d="M8.33325 13.3335H8.34159" stroke="#5820F6" stroke-width="1.5" stroke-linecap="round" stroke-linejoin="round"/>
</svg>
