<svg width="20" height="20" viewBox="0 0 20 20" stroke="currentColor" fill="none" xmlns="http://www.w3.org/2000/svg">
<path d="M17.6751 13.2417C17.1449 14.4955 16.3157 15.6002 15.2599 16.4595C14.2042 17.3187 12.954 17.9063 11.6187 18.1707C10.2835 18.4352 8.90374 18.3685 7.60017 17.9766C6.29661 17.5846 5.10891 16.8793 4.1409 15.9223C3.1729 14.9653 2.45406 13.7857 2.04725 12.4867C1.64043 11.1877 1.55802 9.8088 1.80722 8.47059C2.05641 7.13238 2.62963 5.87559 3.47676 4.81009C4.32388 3.74459 5.41912 2.90283 6.66672 2.3584" fill="none" stroke-width="1.5" stroke-linecap="round" stroke-linejoin="round"/>
<path d="M18.3333 9.99984C18.3333 8.90549 18.1178 7.82185 17.699 6.81081C17.2802 5.79976 16.6664 4.8811 15.8926 4.10728C15.1187 3.33346 14.2001 2.71963 13.189 2.30084C12.178 1.88205 11.0943 1.6665 10 1.6665V9.99984H18.3333Z" fill="none" stroke-width="1.5" stroke-linecap="round" stroke-linejoin="round"/>
</svg>
