<svg width="20" height="20" viewBox="0 0 20 20" fill="none" stroke="currentColor" xmlns="http://www.w3.org/2000/svg">
<path d="M15.0002 3.33325H5.00016C4.07969 3.33325 3.3335 4.07944 3.3335 4.99992V14.9999C3.3335 15.9204 4.07969 16.6666 5.00016 16.6666H15.0002C15.9206 16.6666 16.6668 15.9204 16.6668 14.9999V4.99992C16.6668 4.07944 15.9206 3.33325 15.0002 3.33325Z" fill="none" stroke-width="1.5" stroke-linecap="round" stroke-linejoin="round"/>
<path d="M12.5 7.5H7.5V12.5H12.5V7.5Z" fill="none" stroke-width="1.5" stroke-linecap="round" stroke-linejoin="round"/>
<path d="M7.5 0.833252V3.33325" fill="none" stroke-width="1.5" stroke-linecap="round" stroke-linejoin="round"/>
<path d="M12.5 0.833252V3.33325" fill="none" stroke-width="1.5" stroke-linecap="round" stroke-linejoin="round"/>
<path d="M7.5 16.6667V19.1667" fill="none" stroke-width="1.5" stroke-linecap="round" stroke-linejoin="round"/>
<path d="M12.5 16.6667V19.1667" fill="none" stroke-width="1.5" stroke-linecap="round" stroke-linejoin="round"/>
<path d="M16.6665 7.5H19.1665" fill="none" stroke-width="1.5" stroke-linecap="round" stroke-linejoin="round"/>
<path d="M16.6665 11.6667H19.1665" fill="none" stroke-width="1.5" stroke-linecap="round" stroke-linejoin="round"/>
<path d="M0.833496 7.5H3.3335" fill="none" stroke-width="1.5" stroke-linecap="round" stroke-linejoin="round"/>
<path d="M0.833496 11.6667H3.3335" fill="none" stroke-width="1.5" stroke-linecap="round" stroke-linejoin="round"/>
</svg>
