<svg width="20" height="20" viewBox="0 0 20 20" fill="none" xmlns="http://www.w3.org/2000/svg">
<g clip-path="url(#clip0_1025_2619)">
<path d="M10 18.75C14.8325 18.75 18.75 14.8325 18.75 10C18.75 5.16751 14.8325 1.25 10 1.25C5.16751 1.25 1.25 5.16751 1.25 10C1.25 14.8325 5.16751 18.75 10 18.75Z" stroke="black" stroke-width="1.5" stroke-miterlimit="10"/>
<path d="M6.05822 13.9334C5.47353 13.3631 5.0215 12.6711 4.73419 11.9065C4.44688 11.142 4.33134 10.3235 4.39576 9.50933C4.46018 8.69511 4.70298 7.90505 5.10694 7.19518C5.5109 6.48531 6.06612 5.87302 6.73322 5.40177C7.40031 4.93051 8.16294 4.61182 8.967 4.46832C9.77105 4.32481 10.5968 4.35999 11.3858 4.57137C12.1747 4.78276 12.9075 5.16516 13.5321 5.69145C14.1566 6.21774 14.6578 6.87503 14.9999 7.61669" stroke="black" stroke-width="1.5" stroke-miterlimit="10"/>
<path d="M10.0001 11.5917C9.57798 11.5917 9.17313 11.424 8.87464 11.1255C8.57614 10.827 8.40845 10.4221 8.40845 9.99999C8.40845 9.57786 8.57614 9.17301 8.87464 8.87451C9.17313 8.57602 9.57798 8.40833 10.0001 8.40833C10.8751 8.40833 15.5668 9.99999 15.5668 9.99999C15.5668 9.99999 10.8751 11.5917 10.0001 11.5917Z" stroke="black" stroke-width="1.5" stroke-linejoin="bevel"/>
</g>
<defs>
<clipPath id="clip0_1025_2619">
<rect width="20" height="20" fill="white"/>
</clipPath>
</defs>
</svg>
