<svg width="20" height="20" viewBox="0 0 20 20" stroke="currentColor" fill="none" xmlns="http://www.w3.org/2000/svg">
<path d="M18.3333 10H1.66663" fill="none" stroke-width="1.5" stroke-linecap="round" stroke-linejoin="round"/>
<path d="M4.54163 4.2585L1.66663 10.0002V15.0002C1.66663 15.4422 1.84222 15.8661 2.15478 16.1787C2.46734 16.4912 2.89127 16.6668 3.33329 16.6668H16.6666C17.1087 16.6668 17.5326 16.4912 17.8451 16.1787C18.1577 15.8661 18.3333 15.4422 18.3333 15.0002V10.0002L15.4583 4.2585C15.3203 3.98082 15.1076 3.74714 14.8441 3.58373C14.5806 3.42032 14.2767 3.33366 13.9666 3.3335H6.03329C5.72322 3.33366 5.41935 3.42032 5.15583 3.58373C4.89231 3.74714 4.67961 3.98082 4.54163 4.2585Z" fill="none" stroke-width="1.5" stroke-linecap="round" stroke-linejoin="round"/>
<path d="M5 13.3335H5.00833" fill="none" stroke-width="1.5" stroke-linecap="round" stroke-linejoin="round"/>
<path d="M8.33337 13.3335H8.34171" fill="none" stroke-width="1.5" stroke-linecap="round" stroke-linejoin="round"/>
</svg>
