<svg width="199" height="40" viewBox="0 0 199 40" fill="none" xmlns="http://www.w3.org/2000/svg">
<path d="M6.73863 12.1339C3.79048 15.0969 2.31641 18.7653 2.31641 23.0686H8.42328C8.42328 20.2468 9.33581 17.9893 11.0907 16.1551C12.8455 14.3914 15.0215 13.4743 17.6889 13.4743V7.6189C13.3369 7.6189 9.68678 9.10038 6.73863 12.1339Z" fill="#5820F6"/>
<path d="M12.845 34.0741C15.7931 37.0371 19.4432 38.5186 23.725 38.5186V32.381C20.9173 32.381 18.6711 31.4639 16.846 29.7002C15.0912 27.9366 14.1786 25.7496 14.1786 23.0688H8.35254C8.42273 27.3722 9.89681 31.0406 12.845 34.0741Z" fill="#5820F6"/>
<path d="M34.6767 27.8659C37.6249 24.9029 39.0989 21.2345 39.0989 16.9312H32.992C32.992 19.753 32.0795 22.0105 30.3247 23.8447C28.5698 25.6084 26.3938 26.5255 23.7264 26.5255V32.3809C28.0785 32.3809 31.7286 30.8289 34.6767 27.8659Z" fill="#5820F6"/>
<path d="M17.6184 1.48145V7.33682C20.2156 7.33682 22.4618 8.25393 24.2166 10.0176C25.9715 11.8518 26.884 14.1093 26.884 16.9312H32.9909C32.9909 12.6278 31.5168 8.9594 28.5687 5.99644C25.6205 2.96293 21.9704 1.48145 17.6184 1.48145Z" fill="#5820F6"/>
<path d="M83.5308 11.4285C81.2846 11.4285 79.3894 12.2045 77.8451 13.7565C76.3008 15.3085 75.5287 17.2133 75.5287 19.4708C75.5287 21.7283 76.3008 23.6331 77.8451 25.1851C79.3894 26.7371 81.2846 27.5131 83.5308 27.5131C85.777 27.5131 87.6722 26.7371 89.2165 25.1851C90.7608 23.6331 91.5329 21.7283 91.5329 19.4708C91.5329 17.2133 90.7608 15.3085 89.2165 13.7565C87.7424 12.275 85.777 11.4285 83.5308 11.4285ZM86.9703 23.1392C86.0578 24.0563 84.8645 24.5502 83.5308 24.5502C82.1269 24.5502 81.0038 24.0563 80.0913 23.1392C79.1788 22.2221 78.6874 21.0228 78.6874 19.5413C78.6874 18.0599 79.1788 16.8606 80.0913 15.9435C81.0038 15.0264 82.1971 14.5325 83.5308 14.5325C84.9347 14.5325 86.0578 15.0264 86.9703 15.9435C87.8828 16.8606 88.3742 18.0599 88.3742 19.5413C88.3742 21.0228 87.8828 22.2221 86.9703 23.1392Z" fill="#24292F"/>
<path d="M57.1382 11.4285C55.3132 11.4285 53.6987 11.9928 52.2948 12.9805V11.7107H49.0659V32.0987H52.2948V26.0316C53.6987 27.0898 55.3132 27.5837 57.1382 27.5837C59.3844 27.5837 61.2797 26.8077 62.8239 25.2556C64.3682 23.7036 65.1403 21.7988 65.1403 19.5413C65.1403 17.2838 64.3682 15.3791 62.8239 13.8271C61.2797 12.2045 59.3844 11.4285 57.1382 11.4285ZM60.5777 23.1392C59.6652 24.0563 58.4719 24.5502 57.1382 24.5502C55.7343 24.5502 54.6112 24.0563 53.6987 23.1392C52.7862 22.2221 52.2948 21.0228 52.2948 19.5413C52.2948 18.0599 52.7862 16.8606 53.6987 15.9435C54.6112 15.0264 55.8045 14.5325 57.1382 14.5325C58.5421 14.5325 59.6652 15.0264 60.5777 15.9435C61.4903 16.8606 61.9816 18.0599 61.9816 19.5413C61.9816 21.0228 61.4903 22.2221 60.5777 23.1392Z" fill="#24292F"/>
<path d="M111.399 11.499C109.784 11.499 108.45 11.9223 107.257 12.7689C106.696 13.1921 106.345 13.6154 106.064 14.0387C105.783 13.6154 105.362 13.1216 104.871 12.7689C103.818 11.9223 102.624 11.499 101.22 11.499C99.8868 11.499 98.7637 11.9223 97.7108 12.7689C97.2896 13.1921 96.9386 13.6154 96.6579 14.0387V11.7812H93.429V27.3015H96.6579V18.6948C96.6579 17.4249 97.0088 16.4373 97.7108 15.6613C98.4127 14.8853 99.3252 14.5325 100.378 14.5325C101.291 14.5325 102.063 14.8147 102.695 15.4496C103.326 16.0846 103.607 16.9311 103.607 18.0599V27.3015H106.836V18.6948C106.836 17.4249 107.187 16.4373 107.889 15.6613C108.591 14.8853 109.503 14.5325 110.556 14.5325C111.469 14.5325 112.241 14.8147 112.873 15.4496C113.504 16.0846 113.785 16.9311 113.785 18.0599V27.3015H117.014V18.0599C117.014 16.0846 116.453 14.5325 115.4 13.2627C114.277 12.0634 112.943 11.499 111.399 11.499Z" fill="#24292F"/>
<path d="M136.668 11.499C135.054 11.499 133.72 11.9223 132.527 12.7689C131.965 13.1921 131.614 13.6154 131.333 14.0387C131.053 13.6154 130.631 13.1216 130.14 12.7689C129.087 11.9223 127.894 11.499 126.49 11.499C125.156 11.499 124.033 11.9223 122.98 12.7689C122.559 13.1921 122.208 13.6154 121.927 14.0387V11.7812H118.698V27.3015H121.927V18.6948C121.927 17.4249 122.278 16.4373 122.98 15.6613C123.682 14.8853 124.595 14.5325 125.648 14.5325C126.56 14.5325 127.332 14.8147 127.964 15.4496C128.596 16.0846 128.876 16.9311 128.876 18.0599V27.3015H132.105V18.6948C132.105 17.4249 132.456 16.4373 133.158 15.6613C133.86 14.8853 134.773 14.5325 135.826 14.5325C136.738 14.5325 137.51 14.8147 138.142 15.4496C138.774 16.0846 139.055 16.9311 139.055 18.0599V27.3015H142.284V18.0599C142.284 16.0846 141.722 14.5325 140.669 13.2627C139.546 12.0634 138.212 11.499 136.668 11.499Z" fill="#24292F"/>
<path d="M70.0533 11.7812H66.8243V19.5414V20.2469V27.3015H70.0533V20.2469V19.8236C70.0533 18.4126 70.5446 17.2133 71.4571 16.2962C72.3697 15.3791 73.563 14.8853 74.8967 14.8853V11.7812C73.0716 11.7812 71.4571 12.3456 70.0533 13.3333V11.7812Z" fill="#24292F"/>
<path d="M147.898 11.7812H144.67V27.3015H147.898V11.7812Z" fill="#24292F"/>
<path d="M146.285 5.00879C145.794 5.00879 145.302 5.22043 144.951 5.57316C144.53 5.9259 144.39 6.41972 144.39 6.9841C144.39 7.54847 144.6 8.0423 144.951 8.39503C145.302 8.74777 145.794 8.95941 146.285 8.95941C146.776 8.95941 147.268 8.74777 147.619 8.39503C148.04 8.0423 148.18 7.54847 148.18 6.9841C148.18 6.41972 147.97 5.9259 147.619 5.57316C147.268 5.22043 146.776 5.00879 146.285 5.00879Z" fill="#24292F"/>
<path d="M158.99 11.499C157.656 11.499 156.392 11.9223 155.34 12.7689C154.848 13.1216 154.497 13.6154 154.146 14.0387V11.7812H150.917V27.3015H154.146V18.9064C154.146 17.6366 154.567 16.5784 155.34 15.7318C156.112 14.9558 157.094 14.5325 158.358 14.5325C159.411 14.5325 160.253 14.8853 160.885 15.5202C161.517 16.1551 161.868 17.0722 161.868 18.2715V27.3015H165.097V18.2715C165.097 16.1551 164.535 14.5325 163.412 13.3332C162.289 12.1339 160.815 11.499 158.99 11.499Z" fill="#24292F"/>
<path d="M174.923 11.499C172.747 11.499 170.852 12.275 169.307 13.8271C167.763 15.3791 166.991 17.2839 166.991 19.5414C166.991 21.7988 167.763 23.7036 169.307 25.2556C170.852 26.8077 172.747 27.5837 174.993 27.5837C176.888 27.5837 178.503 27.0899 179.977 26.1022C180.608 25.6789 181.17 25.1851 181.591 24.6207L179.626 22.3632C179.275 22.7865 178.854 23.1392 178.432 23.4214C177.38 24.1269 176.327 24.4796 175.133 24.4796C173.87 24.4796 172.817 24.1269 171.904 23.3509C170.992 22.5749 170.501 21.6578 170.29 20.5996H182.223L182.293 20.1763C182.363 19.6119 182.363 19.1886 182.363 18.977C182.363 16.79 181.661 14.9558 180.258 13.5449C178.924 12.2045 177.099 11.499 174.923 11.499ZM170.43 17.9893C171.132 15.5907 172.677 14.462 174.923 14.462C176.046 14.462 176.958 14.8147 177.66 15.4496C178.362 16.0846 178.854 16.9311 179.134 18.0599L170.43 17.9893Z" fill="#24292F"/>
<path d="M187.628 13.4038V11.8518H184.4V19.9647V20.3174V27.3721H187.628V20.3174V19.8941C187.628 18.4832 188.12 17.2839 189.032 16.3668C189.945 15.4497 191.138 14.9559 192.472 14.9559V11.8518C190.647 11.8518 189.032 12.4162 187.628 13.4038Z" fill="#24292F"/>
<path d="M193.666 24.762H193.175V25.8202H192.824V23.2805H193.947C194.438 23.2805 194.789 23.6333 194.789 24.0565C194.789 24.4093 194.579 24.762 194.158 24.762L195 25.8202H194.509L193.666 24.762ZM193.175 24.4093H193.877C194.158 24.4093 194.298 24.2682 194.298 23.986C194.298 23.7038 194.158 23.5627 193.877 23.5627H193.175V24.4093Z" fill="#24292F"/>
<path d="M193.877 27.3723C192.333 27.3723 191.069 26.1024 191.069 24.5504C191.069 22.9984 192.333 21.7285 193.877 21.7285C195.421 21.7285 196.685 22.9984 196.685 24.5504C196.685 26.1024 195.421 27.3723 193.877 27.3723ZM193.877 21.9402C192.473 21.9402 191.28 23.0689 191.28 24.5504C191.28 25.9613 192.403 27.1606 193.877 27.1606C195.281 27.1606 196.474 26.0319 196.474 24.5504C196.474 23.1395 195.351 21.9402 193.877 21.9402Z" fill="#24292F"/>
</svg>
