<svg width="20" height="20" viewBox="0 0 20 20" fill="none" xmlns="http://www.w3.org/2000/svg">
<path d="M18.7583 12.3916V18.7833" stroke="black" stroke-width="1.5" stroke-miterlimit="10"/>
<path d="M9.9668 10.7916V4.3999" stroke="black" stroke-width="1.5" stroke-miterlimit="10"/>
<path d="M7.56665 6.79157L9.96665 4.3999L12.3583 6.79157" stroke="black" stroke-width="1.5" stroke-miterlimit="10"/>
<path d="M18.7584 18.7833H1.17505V12.3916L4.36672 1.19995H15.5584L18.7584 12.3916" stroke="black" stroke-width="1.5" stroke-miterlimit="10"/>
<path d="M1.9751 12.3916H6.76676C6.74463 12.825 6.81088 13.2584 6.96149 13.6654C7.1121 14.0724 7.34392 14.4445 7.64286 14.7591C7.9418 15.0737 8.3016 15.3242 8.70039 15.4954C9.09918 15.6666 9.52862 15.7548 9.9626 15.7548C10.3966 15.7548 10.826 15.6666 11.2248 15.4954C11.6236 15.3242 11.9834 15.0737 12.2823 14.7591C12.5813 14.4445 12.8131 14.0724 12.9637 13.6654C13.1143 13.2584 13.1806 12.825 13.1584 12.3916H17.9584" stroke="black" stroke-width="1.5" stroke-miterlimit="10"/>
<path d="M18.7584 12.3916H13.1584C13.1165 13.211 12.7616 13.983 12.1668 14.5481C11.5721 15.1132 10.783 15.4284 9.96255 15.4284C9.14212 15.4284 8.35303 15.1132 7.75828 14.5481C7.16353 13.983 6.80857 13.211 6.76672 12.3916H1.17505" stroke="black" stroke-width="1.5" stroke-miterlimit="10"/>
</svg>
