<svg width="20" height="20" viewBox="0 0 20 20" stroke="currentColor" fill="none" xmlns="http://www.w3.org/2000/svg">
<path d="M16.6666 1.6665H3.33329C2.41282 1.6665 1.66663 2.4127 1.66663 3.33317V6.6665C1.66663 7.58698 2.41282 8.33317 3.33329 8.33317H16.6666C17.5871 8.33317 18.3333 7.58698 18.3333 6.6665V3.33317C18.3333 2.4127 17.5871 1.6665 16.6666 1.6665Z" fill="none" stroke-width="1.5" stroke-linecap="round" stroke-linejoin="round"/>
<path d="M16.6666 11.6665H3.33329C2.41282 11.6665 1.66663 12.4127 1.66663 13.3332V16.6665C1.66663 17.587 2.41282 18.3332 3.33329 18.3332H16.6666C17.5871 18.3332 18.3333 17.587 18.3333 16.6665V13.3332C18.3333 12.4127 17.5871 11.6665 16.6666 11.6665Z" fill="none" stroke-width="1.5" stroke-linecap="round" stroke-linejoin="round"/>
<path d="M5 5H5.00833" fill="none" stroke-width="1.5" stroke-linecap="round" stroke-linejoin="round"/>
<path d="M5 15H5.00833" fill="none" stroke-width="1.5" stroke-linecap="round" stroke-linejoin="round"/>
</svg>
