<svg width="22" height="22" viewBox="0 0 22 22" fill="none" xmlns="http://www.w3.org/2000/svg">
<g clip-path="url(#clip0_3_4587)">
<path d="M11 13.75C12.5188 13.75 13.75 12.5188 13.75 11C13.75 9.48122 12.5188 8.25 11 8.25C9.48122 8.25 8.25 9.48122 8.25 11C8.25 12.5188 9.48122 13.75 11 13.75Z" stroke="white" stroke-width="1.5" stroke-linecap="round" stroke-linejoin="round"/>
<path d="M17.7832 13.7501C17.6611 14.0266 17.6247 14.3333 17.6787 14.6306C17.7326 14.928 17.8743 15.2024 18.0857 15.4184L18.1407 15.4734C18.3111 15.6437 18.4464 15.8459 18.5386 16.0684C18.6309 16.291 18.6784 16.5296 18.6784 16.7705C18.6784 17.0114 18.6309 17.25 18.5386 17.4726C18.4464 17.6951 18.3111 17.8973 18.1407 18.0676C17.9704 18.238 17.7682 18.3733 17.5456 18.4655C17.3231 18.5578 17.0845 18.6053 16.8436 18.6053C16.6027 18.6053 16.3641 18.5578 16.1415 18.4655C15.919 18.3733 15.7168 18.238 15.5465 18.0676L15.4915 18.0126C15.2755 17.8013 15.0011 17.6595 14.7037 17.6056C14.4063 17.5517 14.0997 17.5881 13.8232 17.7101C13.552 17.8263 13.3208 18.0192 13.158 18.2652C12.9951 18.5111 12.9077 18.7993 12.9065 19.0942V19.2501C12.9065 19.7363 12.7133 20.2026 12.3695 20.5464C12.0257 20.8903 11.5594 21.0834 11.0732 21.0834C10.5869 21.0834 10.1206 20.8903 9.77681 20.5464C9.43299 20.2026 9.23984 19.7363 9.23984 19.2501V19.1676C9.23274 18.8642 9.13453 18.5699 8.95797 18.3231C8.78141 18.0762 8.53468 17.8882 8.24984 17.7834C7.97336 17.6614 7.66666 17.625 7.3693 17.6789C7.07194 17.7328 6.79754 17.8746 6.5815 18.0859L6.5265 18.1409C6.35624 18.3114 6.15404 18.4466 5.93148 18.5389C5.70891 18.6311 5.47035 18.6786 5.22942 18.6786C4.98849 18.6786 4.74993 18.6311 4.52736 18.5389C4.3048 18.4466 4.1026 18.3114 3.93234 18.1409C3.76188 17.9706 3.62666 17.7685 3.53439 17.5459C3.44213 17.3233 3.39464 17.0848 3.39464 16.8438C3.39464 16.6029 3.44213 16.3643 3.53439 16.1418C3.62666 15.9192 3.76188 15.717 3.93234 15.5467L3.98734 15.4917C4.19866 15.2757 4.34042 15.0013 4.39434 14.704C4.44826 14.4066 4.41186 14.0999 4.28984 13.8234C4.17364 13.5523 3.9807 13.3211 3.73476 13.1582C3.48883 12.9953 3.20064 12.9079 2.90567 12.9067H2.74984C2.26361 12.9067 1.79729 12.7136 1.45347 12.3698C1.10966 12.026 0.916504 11.5596 0.916504 11.0734C0.916504 10.5872 1.10966 10.1209 1.45347 9.77705C1.79729 9.43324 2.26361 9.24008 2.74984 9.24008H2.83234C3.13575 9.23298 3.43001 9.13477 3.67686 8.95822C3.92371 8.78166 4.11174 8.53492 4.2165 8.25008C4.33853 7.9736 4.37493 7.6669 4.32101 7.36954C4.26709 7.07218 4.12533 6.79779 3.914 6.58175L3.859 6.52675C3.68855 6.35648 3.55332 6.15428 3.46106 5.93172C3.3688 5.70916 3.32131 5.47059 3.32131 5.22966C3.32131 4.98874 3.3688 4.75017 3.46106 4.52761C3.55332 4.30504 3.68855 4.10285 3.859 3.93258C4.02927 3.76212 4.23147 3.6269 4.45403 3.53464C4.67659 3.44238 4.91516 3.39489 5.15609 3.39489C5.39702 3.39489 5.63558 3.44238 5.85814 3.53464C6.08071 3.6269 6.2829 3.76212 6.45317 3.93258L6.50817 3.98758C6.72421 4.19891 6.9986 4.34067 7.29596 4.39459C7.59333 4.4485 7.90002 4.4121 8.1765 4.29008H8.24984C8.52096 4.17388 8.75219 3.98094 8.91506 3.73501C9.07792 3.48908 9.16533 3.20089 9.1665 2.90591V2.75008C9.1665 2.26385 9.35966 1.79754 9.70347 1.45372C10.0473 1.1099 10.5136 0.916748 10.9998 0.916748C11.4861 0.916748 11.9524 1.1099 12.2962 1.45372C12.64 1.79754 12.8332 2.26385 12.8332 2.75008V2.83258C12.8343 3.12755 12.9217 3.41574 13.0846 3.66167C13.2475 3.90761 13.4787 4.10055 13.7498 4.21675C14.0263 4.33877 14.333 4.37517 14.6304 4.32125C14.9277 4.26733 15.2021 4.12557 15.4182 3.91425L15.4732 3.85925C15.6434 3.68879 15.8456 3.55357 16.0682 3.46131C16.2908 3.36904 16.5293 3.32156 16.7703 3.32156C17.0112 3.32156 17.2497 3.36904 17.4723 3.46131C17.6949 3.55357 17.8971 3.68879 18.0673 3.85925C18.2378 4.02952 18.373 4.23171 18.4653 4.45427C18.5575 4.67684 18.605 4.9154 18.605 5.15633C18.605 5.39726 18.5575 5.63583 18.4653 5.85839C18.373 6.08095 18.2378 6.28315 18.0673 6.45341L18.0123 6.50841C17.801 6.72445 17.6592 6.99885 17.6053 7.29621C17.5514 7.59357 17.5878 7.90027 17.7098 8.17675V8.25008C17.826 8.5212 18.019 8.75243 18.2649 8.9153C18.5108 9.07817 18.799 9.16557 19.094 9.16675H19.2498C19.7361 9.16675 20.2024 9.3599 20.5462 9.70372C20.89 10.0475 21.0832 10.5139 21.0832 11.0001C21.0832 11.4863 20.89 11.9526 20.5462 12.2964C20.2024 12.6403 19.7361 12.8334 19.2498 12.8334H19.1673C18.8724 12.8346 18.5842 12.922 18.3382 13.0849C18.0923 13.2477 17.8994 13.479 17.7832 13.7501Z" stroke="white" stroke-width="1.5" stroke-linecap="round" stroke-linejoin="round"/>
</g>
<defs>
<clipPath id="clip0_3_4587">
<rect width="22" height="22" fill="white"/>
</clipPath>
</defs>
</svg>
