<svg width="20" height="20" viewBox="0 0 20 20" fill="none" xmlns="http://www.w3.org/2000/svg">
<path d="M2.5 5H4.16667H17.5" stroke="#D24E3C" stroke-width="1.5" stroke-linecap="round" stroke-linejoin="round"/>
<path d="M15.8334 5.00001V16.6667C15.8334 17.1087 15.6578 17.5326 15.3452 17.8452C15.0326 18.1577 14.6087 18.3333 14.1667 18.3333H5.83335C5.39133 18.3333 4.9674 18.1577 4.65484 17.8452C4.34228 17.5326 4.16669 17.1087 4.16669 16.6667V5.00001M6.66669 5.00001V3.33334C6.66669 2.89131 6.84228 2.46739 7.15484 2.15483C7.4674 1.84227 7.89133 1.66667 8.33335 1.66667H11.6667C12.1087 1.66667 12.5326 1.84227 12.8452 2.15483C13.1578 2.46739 13.3334 2.89131 13.3334 3.33334V5.00001" stroke="#D24E3C" stroke-width="1.5" stroke-linecap="round" stroke-linejoin="round"/>
<path d="M8.33331 9.16666V14.1667" stroke="#D24E3C" stroke-width="1.5" stroke-linecap="round" stroke-linejoin="round"/>
<path d="M11.6667 9.16666V14.1667" stroke="#D24E3C" stroke-width="1.5" stroke-linecap="round" stroke-linejoin="round"/>
</svg>
