<svg width="22" height="22" viewBox="0 0 22 22" fill="none" stroke="currentColor" xmlns="http://www.w3.org/2000/svg">
<path d="M14.667 19.25V17.4167C14.667 16.4442 14.2807 15.5116 13.5931 14.8239C12.9054 14.1363 11.9728 13.75 11.0003 13.75H4.58366C3.6112 13.75 2.67857 14.1363 1.99093 14.8239C1.3033 15.5116 0.916992 16.4442 0.916992 17.4167V19.25" fill="none" stroke-width="1.5" stroke-linecap="round" stroke-linejoin="round"/>
<path d="M7.79167 10.0833C9.81671 10.0833 11.4583 8.44171 11.4583 6.41667C11.4583 4.39162 9.81671 2.75 7.79167 2.75C5.76662 2.75 4.125 4.39162 4.125 6.41667C4.125 8.44171 5.76662 10.0833 7.79167 10.0833Z" fill="none" stroke-width="1.5" stroke-linecap="round" stroke-linejoin="round"/>
<path d="M18.333 7.33325V12.8333" fill="none" stroke-width="1.5" stroke-linecap="round" stroke-linejoin="round"/>
<path d="M21.083 10.0833H15.583" fill="none" stroke-width="1.5" stroke-linecap="round" stroke-linejoin="round"/>
</svg>
