<svg width="20" height="20" viewBox="0 0 20 20" fill="none" stroke="currentColor" xmlns="http://www.w3.org/2000/svg">
<path d="M8.00832 10.0251C9.98734 10.0251 11.5917 8.42075 11.5917 6.44173C11.5917 4.46271 9.98734 2.8584 8.00832 2.8584C6.0293 2.8584 4.42499 4.46271 4.42499 6.44173C4.42499 8.42075 6.0293 10.0251 8.00832 10.0251Z" fill="none" stroke-width="1.5" stroke-miterlimit="10"/>
<path d="M1.25 17.975L1.825 15.0917C2.10821 13.659 2.87908 12.3688 4.00643 11.4404C5.13378 10.5121 6.54796 10.0031 8.00833 10C9.46525 10.0057 10.8752 10.5162 11.998 11.4446C13.1209 12.3729 13.8872 13.6618 14.1667 15.0917L14.75 17.975" fill="none" stroke-width="1.5" stroke-miterlimit="10"/>
<path d="M10 9.41673C10.5393 9.77882 11.1669 9.9875 11.8156 10.0205C12.4644 10.0534 13.1099 9.9094 13.6831 9.60383C14.2563 9.29825 14.7357 8.84262 15.0699 8.28564C15.4042 7.72867 15.5807 7.09131 15.5807 6.44173C15.5807 5.79216 15.4042 5.1548 15.0699 4.59782C14.7357 4.04085 14.2563 3.58521 13.6831 3.27964C13.1099 2.97407 12.4644 2.83006 11.8156 2.86301C11.1669 2.89597 10.5393 3.10465 10 3.46673" fill="none" stroke-width="1.5" stroke-miterlimit="10"/>
<path d="M18.75 17.975L18.1667 15.0833C17.9927 14.207 17.6341 13.3779 17.1147 12.6509C16.5954 11.924 15.9272 11.3161 15.1546 10.8675C14.382 10.4189 13.5227 10.14 12.6339 10.0493C11.7452 9.95867 10.8473 10.0583 10 10.3417" fill="none" stroke-width="1.5" stroke-miterlimit="10"/>
</svg>
