<svg width="20" height="20" viewBox="0 0 20 20" stroke="currentColor" fill="none" xmlns="http://www.w3.org/2000/svg">
<path d="M17.1584 1.25V6.025H3.63337C3.02455 5.98902 2.45247 5.72181 2.03414 5.27801C1.6158 4.83422 1.38281 4.24738 1.38281 3.6375C1.38281 3.02762 1.6158 2.44078 2.03414 1.99699C2.45247 1.55319 3.02455 1.28598 3.63337 1.25H17.1584Z" fill="none" stroke-width="1.5" stroke-miterlimit="10" stroke-linecap="square"/>
<path d="M15.5666 10.8335H18.75V14.0168H15.5666C15.1445 14.0168 14.7397 13.8491 14.4412 13.5506C14.1427 13.2521 13.975 12.8473 13.975 12.4252C13.975 12.003 14.1427 11.5982 14.4412 11.2997C14.7397 11.0012 15.1445 10.8335 15.5666 10.8335Z" fill="none" stroke-width="1.5" stroke-miterlimit="10" stroke-linecap="square"/>
<path d="M18.75 6.02497V18.75H2.84168C2.42022 18.7478 2.01664 18.5794 1.71862 18.2814C1.4206 17.9833 1.2522 17.5798 1.25001 17.1583V3.6333C1.24892 3.94699 1.30976 4.2578 1.42904 4.54792C1.54832 4.83804 1.7237 5.10177 1.94512 5.32396C2.16655 5.54616 2.42965 5.72246 2.71936 5.84275C3.00906 5.96305 3.31966 6.02497 3.63335 6.02497H18.75Z" fill="none" stroke-width="1.5" stroke-miterlimit="10" stroke-linecap="square"/>
</svg>
